<?xml version="1.0" encoding="UTF-8"?>
<svg width="267px" height="97px" viewBox="0 0 267 97" version="1.1" xmlns="http://www.w3.org/2000/svg" xmlns:xlink="http://www.w3.org/1999/xlink">
    <!-- Generator: Sketch 50.2 (55047) - http://www.bohemiancoding.com/sketch -->
    <title>Logo</title>
    <desc>Created with Sketch.</desc>
    <defs></defs>
    <g id="Page-1" stroke="none" stroke-width="1" fill="none" fill-rule="evenodd">
        <g id="josu-login-page" transform="translate(-584.000000, -45.000000)">
            <g id="Logo" transform="translate(584.000000, 36.000000)">
                <g id="Group-7">
                    <text id="by-Digital-Lync" fill="#212121" font-family="BandaRegular, Banda Regular" font-size="16" font-weight="normal">
                        <tspan x="79" y="103">by Digital Lync</tspan>
                    </text>
                    <g id="Group-6">
                        <text id="Josu" stroke="#212121" stroke-width="2" fill="#212121" font-family="BandaRegular, Banda Regular" font-size="80" font-weight="normal">
                            <tspan x="59" y="77">JOSU</tspan>
                        </text>
                        <g id="Group-3" transform="translate(0.000000, 9.000000)">
                            <g id="Group-2" transform="translate(0.000000, 22.282051)" fill="#7EBD42">
                                <path d="M1.0247246,28.8808795 C1.50222294,26.6896472 3.76093417,25.0302534 6.47528267,25.0302534 C9.53692142,25.0302534 12.01887,27.1414376 12.01887,29.7457154 C12.01887,30.2876722 11.9113851,30.8082747 11.7135589,31.2929404 C11.2892123,32.4208119 11.0601252,33.622971 11.0601252,34.8706432 C11.0601252,41.346628 17.2319174,46.5964509 24.8452088,46.5964509 C32.4585003,46.5964509 38.6302925,41.346628 38.6302925,34.8706432 C38.6302925,29.7326129 34.7452749,25.3664264 29.3376786,23.7816113 C26.8313408,22.9197076 20.3797878,20.6888287 17.2030021,19.476524 C13.5224962,18.0719928 11.8255271,17.166842 11.5820259,17.0335255 C11.5932776,17.0274717 11.6045354,17.0214253 11.6157993,17.0153865 C4.97918337,13.3987027 0.497620566,7.1711902 0.174051015,0.036579487 C5.07002217,4.39286748 11.122496,7.800806 17.9121456,9.90370909 C19.765019,10.5416849 23.5552788,11.7856818 28.93836,13.2512727 C29.9467442,13.5258141 32.1537249,14.3177298 34.2634219,15.200215 C36.9013328,16.3036517 38.0388677,16.9592419 38.2525293,17.0871755 C38.2449893,17.0912276 38.2374465,17.0952763 38.229901,17.0993216 C45.1223703,20.8554372 49.6904177,27.4275586 49.6904177,34.9072227 C49.6904177,46.5790557 38.5668388,56.0409458 24.8452088,56.0409458 C11.1235789,56.0409458 0,46.5790557 0,34.9072227 C0,32.8133648 0.357981688,30.7906278 1.0247246,28.8808795 Z" id="Combined-Shape"></path>
                            </g>
                            <g id="Group" fill="#EC5528">
                                <path d="M44.2303795,34.0177739 C43.2206549,35.2065488 41.5771725,35.9801377 39.7212775,35.9801377 C36.6510629,35.9801377 34.1621622,33.8630398 34.1621622,31.2514672 C34.1621622,30.0867951 34.6571685,29.0204668 35.4779855,28.1964028 C37.2391703,26.2269675 38.2846635,23.7692875 38.2846635,21.1038973 C38.2846635,14.6279126 32.1128714,9.37808965 24.4995799,9.37808965 C17.812269,9.37808965 12.2371316,13.428535 10.979885,18.8025924 C10.9790928,18.8018663 10.9783002,18.8011405 10.9775072,18.8004148 C10.4373725,20.9271082 8.21313613,22.5206237 5.55135135,22.5206237 C2.48542466,22.5206237 -9.76996262e-15,20.4064827 -9.76996262e-15,17.7985575 C-9.76996262e-15,17.1410142 0.158000724,16.5148611 0.443469482,15.94607 C3.16219458,6.78239346 12.9172625,0 24.5346437,0 C38.2562737,0 49.3798526,9.46189015 49.3798526,21.1337232 C49.3798526,25.9833167 47.4595171,30.4513936 44.2303795,34.0177739 Z" id="Combined-Shape"></path>
                            </g>
                            <ellipse id="Combined-Shape" fill="#FAB416" cx="25" cy="56.7179487" rx="9" ry="8.1025641"></ellipse>
                            <ellipse id="Combined-Shape-Copy" fill="#30A0D9" cx="25" cy="22.2820513" rx="9" ry="8.1025641"></ellipse>
                        </g>
                    </g>
                </g>
            </g>
        </g>
    </g>
</svg>